<svg width="198" height="42" viewBox="0 0 198 42" fill="none" xmlns="http://www.w3.org/2000/svg">
<path d="M29.8229 18.4657C28.7092 19.6402 28.1526 21.2737 28.3046 22.922L28.2785 22.8946C28.4347 24.8343 27.7672 26.7475 26.4541 28.1239C25.1409 29.5004 23.3157 30.2 21.4652 30.0363L21.4913 30.0637C19.2508 29.8451 17.1201 31.1225 16.1639 33.2577C15.2078 35.3928 15.6315 37.9271 17.2233 39.5942C18.8152 41.2612 21.2333 41.7031 23.2694 40.6989C25.3055 39.6947 26.5223 37.4601 26.3117 35.1118L26.3393 35.1392C26.1831 33.1996 26.8506 31.2863 28.1637 29.9099C29.4769 28.5335 31.3021 27.8338 33.1526 27.9975L33.125 27.9702C35.5874 28.2023 37.8787 26.6285 38.6586 24.1693C39.4385 21.7102 38.5022 19.0117 36.3974 17.6523C34.2925 16.2929 31.572 16.6297 29.8272 18.4657H29.8229Z" fill="#5454D4"/>
<path d="M19.1152 26.4761L19.0876 26.4487C20.6611 26.6149 22.2226 26.0317 23.3413 24.86C24.46 23.6883 25.0176 22.0519 24.8602 20.4025L24.8878 20.4299C24.7316 18.4902 25.3991 16.577 26.7122 15.2005C28.0254 13.8241 29.8506 13.1245 31.7011 13.2882L31.6735 13.2608C33.9142 13.4814 36.0462 12.2053 37.0038 10.0705C37.9614 7.93567 37.539 5.40063 35.9476 3.73254C34.3562 2.06445 31.9377 1.62162 29.9011 2.62539C27.8644 3.62917 26.647 5.86394 26.8575 8.21264L26.8313 8.18373C26.9881 10.1235 26.3207 12.0371 25.0075 13.4136C23.6942 14.7902 21.8687 15.4897 20.018 15.3254L20.0442 15.3543C18.4707 15.1881 16.9092 15.7714 15.7905 16.9431C14.6718 18.1148 14.1142 19.7511 14.2716 21.4005L14.2455 21.3732C14.4012 23.3127 13.7335 25.2256 12.4205 26.6019C11.1075 27.9782 9.28253 28.678 7.43217 28.5148L7.4583 28.5422C5.2176 28.3217 3.08559 29.5977 2.12797 31.7325C1.17035 33.8674 1.59282 36.4024 3.18421 38.0705C4.77559 39.7386 7.19407 40.1814 9.23073 39.1776C11.2674 38.1739 12.4848 35.9391 12.2743 33.5904L12.3019 33.6178C12.1457 31.6781 12.8132 29.7649 14.1263 28.3885C15.4395 27.012 17.2647 26.3124 19.1152 26.4761Z" fill="#FF7143"/>
<path d="M9.38736 23.4225C10.5012 22.2482 11.0574 20.6144 10.9042 18.9662L10.9317 18.9936C10.7754 17.0533 11.4433 15.1396 12.7571 13.763C14.0709 12.3865 15.897 11.6872 17.7479 11.8519L17.7204 11.8245C19.9603 12.0445 22.0913 10.7686 23.0483 8.6344C24.0053 6.50025 23.5829 3.96622 21.9921 2.29875C20.4013 0.631274 17.9838 0.188466 15.9478 1.19163C13.9117 2.19479 12.6945 4.42849 12.9043 6.77637L12.8782 6.74898C13.0344 8.68865 12.3669 10.6019 11.0538 11.9783C9.74063 13.3547 7.91539 14.0544 6.0649 13.8907L6.09103 13.918C3.62873 13.6866 1.33794 15.2608 0.558464 17.7199C-0.221007 20.1791 0.71559 22.8773 2.82047 24.2364C4.92535 25.5955 7.64561 25.2585 9.39027 23.4225H9.38736Z" fill="#5454D4"/>
<path d="M54.3501 8.24768H58.661V30.2372H54.3501V8.24768Z" fill="#19191B"/>
<path fill-rule="evenodd" clip-rule="evenodd" d="M65.7827 15.3094C62.9378 16.5551 61.0901 19.4758 61.1024 22.7075C61.0875 24.8266 61.8861 26.8629 63.3185 28.3584C64.7509 29.8538 66.6968 30.6827 68.7184 30.6586C71.8015 30.6585 74.5805 28.7101 75.7575 25.7231C76.9345 22.7361 76.2773 19.3 74.0928 17.0194C71.9084 14.7388 68.6276 14.0637 65.7827 15.3094ZM68.6572 19.338C70.4711 19.3029 71.9733 20.8064 72.0234 22.7074C72.0724 23.6498 71.7432 24.5707 71.1154 25.2473C70.4876 25.9238 69.6185 26.2943 68.7184 26.2691C66.9041 26.2692 65.4287 24.737 65.4119 22.8353C65.3951 20.9337 66.8432 19.3731 68.6572 19.338Z" fill="#19191B"/>
<path fill-rule="evenodd" clip-rule="evenodd" d="M93.5157 29.4779V15.1763L89.3194 15.1732V16.7099C88.2958 15.397 86.7389 14.6705 85.1232 14.7518C81.1817 14.8821 78.0509 18.2689 78.0509 22.4024C78.0509 26.5358 81.1817 29.9227 85.1232 30.053C86.7389 30.1342 88.2958 29.4078 89.3194 28.0949V29.4718C89.3916 30.3802 89.066 31.2738 88.4344 31.9006C87.8029 32.5273 86.9339 32.8193 86.0724 32.6942C84.7098 32.84 83.404 32.0837 82.7964 30.797L79.1184 33.0259C80.5573 35.4834 83.1855 36.8925 85.9287 36.6774C89.7505 36.6774 93.5157 34.5382 93.5157 29.4779ZM87.2724 18.9239C88.5692 19.5369 89.3801 20.9148 89.3209 22.4047C89.3477 23.3667 88.9852 24.2957 88.323 24.9624C87.6607 25.629 86.7605 25.971 85.8445 25.904C84.422 25.9058 83.1413 25.0008 82.6094 23.6178C82.0775 22.2348 82.4013 20.6517 83.4274 19.6189C84.4534 18.586 85.9756 18.3109 87.2724 18.9239Z" fill="#19191B"/>
<path fill-rule="evenodd" clip-rule="evenodd" d="M100.637 15.3094C97.7924 16.5551 95.9447 19.4758 95.9571 22.7075C95.9421 24.8266 96.7407 26.8629 98.1731 28.3584C99.6055 29.8538 101.551 30.6827 103.573 30.6586C106.656 30.6585 109.435 28.7101 110.612 25.7231C111.789 22.7361 111.132 19.3 108.947 17.0194C106.763 14.7388 103.482 14.0637 100.637 15.3094ZM103.512 19.338C105.326 19.3029 106.828 20.8064 106.878 22.7074C106.927 23.6498 106.598 24.5707 105.97 25.2473C105.342 25.9238 104.473 26.2943 103.573 26.2691C101.759 26.2692 100.283 24.737 100.266 22.8353C100.25 20.9337 101.698 19.3731 103.512 19.338Z" fill="#19191B"/>
<path fill-rule="evenodd" clip-rule="evenodd" d="M114.796 8.63517C113.829 9.05481 113.199 10.0434 113.199 11.14C113.213 12.6312 114.363 13.8364 115.786 13.8512C116.832 13.8512 117.775 13.1907 118.175 12.1775C118.576 11.1644 118.355 9.99829 117.615 9.22289C116.875 8.44748 115.763 8.21552 114.796 8.63517ZM117.947 15.1763H113.635L113.629 30.2387H117.947V15.1763Z" fill="#19191B"/>
<path fill-rule="evenodd" clip-rule="evenodd" d="M134.704 28.1801C135.993 26.6877 136.662 24.718 136.561 22.7075C136.662 20.6966 135.994 18.7263 134.705 17.2335C133.416 15.7406 131.612 14.8485 129.693 14.7549C128.075 14.6624 126.504 15.3366 125.412 16.5913V15.1763H121.101V36.2621H125.412V28.8207C126.503 30.0762 128.075 30.7511 129.693 30.6586C131.611 30.5645 133.415 29.6725 134.704 28.1801ZM128.774 19.2131C130.651 19.1802 132.203 20.74 132.25 22.7074C132.315 23.6851 131.979 24.6455 131.326 25.3472C130.673 26.0489 129.766 26.4253 128.832 26.3817C126.954 26.3819 125.428 24.7953 125.412 22.8273C125.396 20.8594 126.897 19.2461 128.774 19.2131Z" fill="#19191B"/>
<path d="M149.864 25.7184C149.864 29.1828 146.991 30.6586 143.888 30.6586C141.323 30.9022 138.875 29.482 137.709 27.0741L141.444 24.8451C141.755 25.9662 142.771 26.7067 143.882 26.6222C144.916 26.6222 145.434 26.2905 145.434 25.6895C145.434 24.0312 138.364 24.906 138.364 19.695C138.364 16.4102 141.008 14.7549 143.997 14.7549C146.285 14.679 148.432 15.9135 149.6 17.9773L145.922 20.0556C145.592 19.2491 144.834 18.7273 143.997 18.7304C143.249 18.7304 142.789 19.0347 142.789 19.5733C142.795 21.291 149.864 20.1454 149.864 25.7184Z" fill="#19191B"/>
<path d="M165.611 15.1763V30.2386H161.3V28.8221C160.292 30.09 158.764 30.7736 157.192 30.66C154.289 30.66 151.822 28.492 151.822 24.4221V15.1763H156.133V23.7603C156.06 24.4864 156.295 25.2093 156.777 25.7369C157.258 26.2645 157.937 26.5432 158.632 26.4989C160.213 26.4989 161.305 25.5358 161.305 23.3967V15.1808L165.611 15.1763Z" fill="#19191B"/>
<path d="M190.33 20.9897V30.2371H186.019V21.3807C186.019 19.8745 185.33 18.9114 183.951 18.9114C182.514 18.9114 181.708 19.9658 181.708 21.7428V30.2371H177.399V21.3807C177.399 19.8745 176.709 18.9114 175.329 18.9114C173.892 18.9114 173.088 19.9658 173.088 21.7428V30.2371H168.777V15.1747H173.088V16.5592C173.996 15.3112 175.446 14.6312 176.939 14.7533C178.439 14.6764 179.868 15.4307 180.702 16.7403C181.673 15.3713 183.247 14.6209 184.87 14.7533C188.169 14.7548 190.33 17.2241 190.33 20.9897Z" fill="#19191B"/>
<path d="M193.976 15.0835C195.743 15.0835 197.175 13.5822 197.175 11.7302C197.175 9.87826 195.743 8.37695 193.976 8.37695C192.209 8.37695 190.777 9.87826 190.777 11.7302C190.777 13.5822 192.209 15.0835 193.976 15.0835Z" fill="#19191B"/>
</svg>
